<?xml version="1.0" encoding="UTF-8" standalone="no"?>
<!DOCTYPE svg PUBLIC "-//W3C//DTD SVG 1.1//EN"
 "http://www.w3.org/Graphics/SVG/1.1/DTD/svg11.dtd">
<!-- Generated by graphviz version 2.36.0 (20140111.2315)
 -->
<!-- Title: controllers_diagram Pages: 1 -->
<svg width="911pt" height="462pt"
 viewBox="0.00 0.00 911.37 461.67" xmlns="http://www.w3.org/2000/svg" xmlns:xlink="http://www.w3.org/1999/xlink">
<g id="graph0" class="graph" transform="scale(1 1) rotate(0) translate(4 457.674)">
<title>controllers_diagram</title>
<polygon fill="white" stroke="none" points="-4,4 -4,-457.674 907.371,-457.674 907.371,4 -4,4"/>
<!-- _diagram_info -->
<g id="node1" class="node"><title>_diagram_info</title>
<text text-anchor="start" x="488" y="-223.6" font-family="Times,serif" font-size="13.00">Controllers diagram</text>
<text text-anchor="start" x="488" y="-209.6" font-family="Times,serif" font-size="13.00">Date: Aug 20 2014 &#45; 11:38</text>
<text text-anchor="start" x="488" y="-195.6" font-family="Times,serif" font-size="13.00">Migration version: 20140604204641</text>
<text text-anchor="start" x="488" y="-181.6" font-family="Times,serif" font-size="13.00">Generated by RailRoady 1.1.2</text>
<text text-anchor="start" x="488" y="-167.6" font-family="Times,serif" font-size="13.00">http://railroady.prestonlee.com</text>
</g>
<!-- ApplicationController -->
<g id="node2" class="node"><title>ApplicationController</title>
<path fill="none" stroke="black" d="M164.242,-183.72C164.242,-183.72 276.242,-183.72 276.242,-183.72 282.242,-183.72 288.242,-189.72 288.242,-195.72 288.242,-195.72 288.242,-265.72 288.242,-265.72 288.242,-271.72 282.242,-277.72 276.242,-277.72 276.242,-277.72 164.242,-277.72 164.242,-277.72 158.242,-277.72 152.242,-271.72 152.242,-265.72 152.242,-265.72 152.242,-195.72 152.242,-195.72 152.242,-189.72 158.242,-183.72 164.242,-183.72"/>
<text text-anchor="middle" x="220.242" y="-262.52" font-family="Times,serif" font-size="14.00">ApplicationController</text>
<polyline fill="none" stroke="black" points="152.242,-254.72 288.242,-254.72 "/>
<polyline fill="none" stroke="black" points="152.242,-230.72 288.242,-230.72 "/>
<polyline fill="none" stroke="black" points="152.242,-206.72 288.242,-206.72 "/>
<text text-anchor="start" x="160.242" y="-191.52" font-family="Times,serif" font-size="14.00">_layout</text>
</g>
<!-- CreditCardsController -->
<g id="node3" class="node"><title>CreditCardsController</title>
<path fill="none" stroke="black" d="M298.714,-65.9796C298.714,-65.9796 411.714,-65.9796 411.714,-65.9796 417.714,-65.9796 423.714,-71.9796 423.714,-77.9796 423.714,-77.9796 423.714,-161.98 423.714,-161.98 423.714,-167.98 417.714,-173.98 411.714,-173.98 411.714,-173.98 298.714,-173.98 298.714,-173.98 292.714,-173.98 286.714,-167.98 286.714,-161.98 286.714,-161.98 286.714,-77.9796 286.714,-77.9796 286.714,-71.9796 292.714,-65.9796 298.714,-65.9796"/>
<text text-anchor="middle" x="355.214" y="-158.78" font-family="Times,serif" font-size="14.00">CreditCardsController</text>
<polyline fill="none" stroke="black" points="286.714,-150.98 423.714,-150.98 "/>
<text text-anchor="start" x="294.714" y="-135.78" font-family="Times,serif" font-size="14.00">index</text>
<text text-anchor="start" x="294.714" y="-120.78" font-family="Times,serif" font-size="14.00">show</text>
<polyline fill="none" stroke="black" points="286.714,-112.98 423.714,-112.98 "/>
<polyline fill="none" stroke="black" points="286.714,-88.9796 423.714,-88.9796 "/>
<text text-anchor="start" x="294.714" y="-73.7796" font-family="Times,serif" font-size="14.00">_layout</text>
</g>
<!-- ApplicationController&#45;&gt;CreditCardsController -->
<g id="edge1" class="edge"><title>ApplicationController&#45;&gt;CreditCardsController</title>
<path fill="none" stroke="black" d="M277.874,-183.435C281.6,-180.378 285.367,-177.288 289.127,-174.202"/>
</g>
<!-- UsersController -->
<g id="node4" class="node"><title>UsersController</title>
<path fill="none" stroke="black" d="M45.8715,-64.5C45.8715,-64.5 124.872,-64.5 124.872,-64.5 130.872,-64.5 136.872,-70.5 136.872,-76.5 136.872,-76.5 136.872,-160.5 136.872,-160.5 136.872,-166.5 130.872,-172.5 124.872,-172.5 124.872,-172.5 45.8715,-172.5 45.8715,-172.5 39.8715,-172.5 33.8715,-166.5 33.8715,-160.5 33.8715,-160.5 33.8715,-76.5 33.8715,-76.5 33.8715,-70.5 39.8715,-64.5 45.8715,-64.5"/>
<text text-anchor="middle" x="85.3715" y="-157.3" font-family="Times,serif" font-size="14.00">UsersController</text>
<polyline fill="none" stroke="black" points="33.8715,-149.5 136.872,-149.5 "/>
<text text-anchor="start" x="41.8715" y="-134.3" font-family="Times,serif" font-size="14.00">index</text>
<text text-anchor="start" x="41.8715" y="-119.3" font-family="Times,serif" font-size="14.00">show</text>
<polyline fill="none" stroke="black" points="33.8715,-111.5 136.872,-111.5 "/>
<polyline fill="none" stroke="black" points="33.8715,-87.5 136.872,-87.5 "/>
<text text-anchor="start" x="41.8715" y="-72.3" font-family="Times,serif" font-size="14.00">_layout</text>
</g>
<!-- ApplicationController&#45;&gt;UsersController -->
<g id="edge2" class="edge"><title>ApplicationController&#45;&gt;UsersController</title>
<path fill="none" stroke="black" d="M163.436,-183.454C154.653,-176.146 145.623,-168.633 136.963,-161.427"/>
</g>
<!-- HomeController -->
<g id="node5" class="node"><title>HomeController</title>
<path fill="none" stroke="black" d="M12,-307.323C12,-307.323 94,-307.323 94,-307.323 100,-307.323 106,-313.323 106,-319.323 106,-319.323 106,-388.323 106,-388.323 106,-394.323 100,-400.323 94,-400.323 94,-400.323 12,-400.323 12,-400.323 6,-400.323 -2.84217e-14,-394.323 -2.84217e-14,-388.323 -2.84217e-14,-388.323 -2.84217e-14,-319.323 -2.84217e-14,-319.323 -2.84217e-14,-313.323 6,-307.323 12,-307.323"/>
<text text-anchor="middle" x="53" y="-385.123" font-family="Times,serif" font-size="14.00">HomeController</text>
<polyline fill="none" stroke="black" points="-2.84217e-14,-377.323 106,-377.323 "/>
<text text-anchor="start" x="8" y="-362.123" font-family="Times,serif" font-size="14.00">index</text>
<polyline fill="none" stroke="black" points="-2.84217e-14,-354.323 106,-354.323 "/>
<polyline fill="none" stroke="black" points="-2.84217e-14,-330.323 106,-330.323 "/>
<text text-anchor="start" x="8" y="-315.123" font-family="Times,serif" font-size="14.00">_layout</text>
</g>
<!-- ApplicationController&#45;&gt;HomeController -->
<g id="edge3" class="edge"><title>ApplicationController&#45;&gt;HomeController</title>
<path fill="none" stroke="black" d="M156.06,-277.963C139.572,-290.1 122.015,-303.022 106.154,-314.698"/>
</g>
<!-- AccountsController -->
<g id="node7" class="node"><title>AccountsController</title>
<path fill="none" stroke="black" d="M333.357,-273.781C333.357,-273.781 432.357,-273.781 432.357,-273.781 438.357,-273.781 444.357,-279.781 444.357,-285.781 444.357,-285.781 444.357,-429.781 444.357,-429.781 444.357,-435.781 438.357,-441.781 432.357,-441.781 432.357,-441.781 333.357,-441.781 333.357,-441.781 327.357,-441.781 321.357,-435.781 321.357,-429.781 321.357,-429.781 321.357,-285.781 321.357,-285.781 321.357,-279.781 327.357,-273.781 333.357,-273.781"/>
<text text-anchor="middle" x="382.857" y="-426.581" font-family="Times,serif" font-size="14.00">AccountsController</text>
<polyline fill="none" stroke="black" points="321.357,-418.781 444.357,-418.781 "/>
<text text-anchor="start" x="329.357" y="-403.581" font-family="Times,serif" font-size="14.00">create</text>
<text text-anchor="start" x="329.357" y="-388.581" font-family="Times,serif" font-size="14.00">index</text>
<text text-anchor="start" x="329.357" y="-373.581" font-family="Times,serif" font-size="14.00">new</text>
<text text-anchor="start" x="329.357" y="-358.581" font-family="Times,serif" font-size="14.00">show</text>
<text text-anchor="start" x="329.357" y="-343.581" font-family="Times,serif" font-size="14.00">update</text>
<polyline fill="none" stroke="black" points="321.357,-335.781 444.357,-335.781 "/>
<polyline fill="none" stroke="black" points="321.357,-311.781 444.357,-311.781 "/>
<text text-anchor="start" x="329.357" y="-296.581" font-family="Times,serif" font-size="14.00">_layout</text>
<text text-anchor="start" x="329.357" y="-281.581" font-family="Times,serif" font-size="14.00">account_params</text>
</g>
<!-- ApplicationController&#45;&gt;AccountsController -->
<g id="edge5" class="edge"><title>ApplicationController&#45;&gt;AccountsController</title>
<path fill="none" stroke="black" d="M280.794,-278.033C293.978,-288.334 307.942,-299.245 321.169,-309.581"/>
</g>
<!-- StaticPagesController -->
<g id="node8" class="node"><title>StaticPagesController</title>
<path fill="none" stroke="black" d="M159.504,-359.174C159.504,-359.174 269.504,-359.174 269.504,-359.174 275.504,-359.174 281.504,-365.174 281.504,-371.174 281.504,-371.174 281.504,-441.174 281.504,-441.174 281.504,-447.174 275.504,-453.174 269.504,-453.174 269.504,-453.174 159.504,-453.174 159.504,-453.174 153.504,-453.174 147.504,-447.174 147.504,-441.174 147.504,-441.174 147.504,-371.174 147.504,-371.174 147.504,-365.174 153.504,-359.174 159.504,-359.174"/>
<text text-anchor="middle" x="214.504" y="-437.974" font-family="Times,serif" font-size="14.00">StaticPagesController</text>
<polyline fill="none" stroke="black" points="147.504,-430.174 281.504,-430.174 "/>
<polyline fill="none" stroke="black" points="147.504,-406.174 281.504,-406.174 "/>
<polyline fill="none" stroke="black" points="147.504,-382.174 281.504,-382.174 "/>
<text text-anchor="start" x="155.504" y="-366.974" font-family="Times,serif" font-size="14.00">_layout</text>
</g>
<!-- ApplicationController&#45;&gt;StaticPagesController -->
<g id="edge6" class="edge"><title>ApplicationController&#45;&gt;StaticPagesController</title>
<path fill="none" stroke="black" d="M218.705,-277.739C217.881,-302.912 216.87,-333.833 216.046,-359.026"/>
</g>
<!-- RegistrationsController -->
<g id="node6" class="node"><title>RegistrationsController</title>
<path fill="none" stroke="black" d="M492,-0.5C492,-0.5 622,-0.5 622,-0.5 628,-0.5 634,-6.5 634,-12.5 634,-12.5 634,-81.5 634,-81.5 634,-87.5 628,-93.5 622,-93.5 622,-93.5 492,-93.5 492,-93.5 486,-93.5 480,-87.5 480,-81.5 480,-81.5 480,-12.5 480,-12.5 480,-6.5 486,-0.5 492,-0.5"/>
<text text-anchor="middle" x="557" y="-78.3" font-family="Times,serif" font-size="14.00">RegistrationsController</text>
<polyline fill="none" stroke="black" points="480,-70.5 634,-70.5 "/>
<text text-anchor="start" x="488" y="-55.3" font-family="Times,serif" font-size="14.00">update_sanitized_params</text>
<polyline fill="none" stroke="black" points="480,-47.5 634,-47.5 "/>
<polyline fill="none" stroke="black" points="480,-23.5 634,-23.5 "/>
<text text-anchor="start" x="488" y="-8.3" font-family="Times,serif" font-size="14.00">_layout</text>
</g>
<!-- Devise::RegistrationsController -->
<g id="node9" class="node"><title>Devise::RegistrationsController</title>
<ellipse fill="none" stroke="black" cx="781.182" cy="-46.9998" rx="122.379" ry="18"/>
<text text-anchor="middle" x="781.182" y="-43.2998" font-family="Times,serif" font-size="14.00">Devise::RegistrationsController</text>
</g>
<!-- Devise::RegistrationsController&#45;&gt;RegistrationsController -->
<g id="edge4" class="edge"><title>Devise::RegistrationsController&#45;&gt;RegistrationsController</title>
<path fill="none" stroke="black" d="M658.923,-46.9999C650.522,-46.9999 642.197,-46.9999 634.14,-46.9999"/>
</g>
</g>
</svg>
