<?xml version="1.0" encoding="UTF-8" standalone="no"?>
<!DOCTYPE svg PUBLIC "-//W3C//DTD SVG 1.1//EN"
 "http://www.w3.org/Graphics/SVG/1.1/DTD/svg11.dtd">
<!-- Generated by graphviz version 2.36.0 (20140111.2315)
 -->
<!-- Title: models_diagram Pages: 1 -->
<svg width="448pt" height="230pt"
 viewBox="0.00 0.00 448.44 230.00" xmlns="http://www.w3.org/2000/svg" xmlns:xlink="http://www.w3.org/1999/xlink">
<g id="graph0" class="graph" transform="scale(1 1) rotate(0) translate(4 226)">
<title>models_diagram</title>
<polygon fill="white" stroke="none" points="-4,4 -4,-226 444.438,-226 444.438,4 -4,4"/>
<!-- _diagram_info -->
<g id="node1" class="node"><title>_diagram_info</title>
<text text-anchor="start" x="8" y="-207.6" font-family="Times,serif" font-size="13.00">Models diagram</text>
<text text-anchor="start" x="8" y="-193.6" font-family="Times,serif" font-size="13.00">Date: Aug 20 2014 &#45; 11:38</text>
<text text-anchor="start" x="8" y="-179.6" font-family="Times,serif" font-size="13.00">Migration version: 20140604204641</text>
<text text-anchor="start" x="8" y="-165.6" font-family="Times,serif" font-size="13.00">Generated by RailRoady 1.1.2</text>
<text text-anchor="start" x="8" y="-151.6" font-family="Times,serif" font-size="13.00">http://railroady.prestonlee.com</text>
</g>
<!-- CreditCard -->
<g id="node2" class="node"><title>CreditCard</title>
<ellipse fill="none" stroke="black" cx="167" cy="-90" rx="50.0684" ry="18"/>
<text text-anchor="middle" x="167" y="-86.3" font-family="Times,serif" font-size="14.00">CreditCard</text>
</g>
<!-- Note -->
<g id="node3" class="node"><title>Note</title>
<ellipse fill="none" stroke="black" cx="196" cy="-18" rx="27.4223" ry="18"/>
<text text-anchor="middle" x="196" y="-14.3" font-family="Times,serif" font-size="14.00">Note</text>
</g>
<!-- CreditCard&#45;&gt;Note -->
<g id="edge1" class="edge"><title>CreditCard&#45;&gt;Note</title>
<path fill="none" stroke="#9bafde" d="M177.179,-64.4306C179.754,-58.214 182.53,-51.5142 185.138,-45.2195"/>
<ellipse fill="none" stroke="#9bafde" cx="175.551" cy="-68.3595" rx="4.00001" ry="4.00001"/>
<polygon fill="#9bafde" stroke="#9bafde" points="185.217,-45.0276 193.202,-37.5114 187.131,-40.4083 189.045,-35.789 189.045,-35.789 189.045,-35.789 187.131,-40.4083 184.887,-34.0666 185.217,-45.0276 185.217,-45.0276"/>
</g>
<!-- Account -->
<g id="node4" class="node"><title>Account</title>
<ellipse fill="none" stroke="black" cx="313" cy="-90" rx="39.9464" ry="18"/>
<text text-anchor="middle" x="313" y="-86.3" font-family="Times,serif" font-size="14.00">Account</text>
</g>
<!-- Payment -->
<g id="node6" class="node"><title>Payment</title>
<ellipse fill="none" stroke="black" cx="383" cy="-18" rx="42.3701" ry="18"/>
<text text-anchor="middle" x="383" y="-14.3" font-family="Times,serif" font-size="14.00">Payment</text>
</g>
<!-- Account&#45;&gt;Payment -->
<g id="edge4" class="edge"><title>Account&#45;&gt;Payment</title>
<path fill="none" stroke="#969db9" d="M334.806,-67.1941C342.83,-59.1704 351.937,-50.0631 360.058,-41.9423"/>
<ellipse fill="none" stroke="#969db9" cx="331.713" cy="-70.2875" rx="4.00002" ry="4.00002"/>
<polygon fill="#969db9" stroke="#969db9" points="360.108,-41.8923 370.361,-38.0032 363.643,-38.3568 367.179,-34.8212 367.179,-34.8212 367.179,-34.8212 363.643,-38.3568 363.997,-31.6392 360.108,-41.8923 360.108,-41.8923"/>
</g>
<!-- User -->
<g id="node5" class="node"><title>User</title>
<ellipse fill="none" stroke="black" cx="399" cy="-90" rx="26.949" ry="18"/>
<text text-anchor="middle" x="399" y="-86.3" font-family="Times,serif" font-size="14.00">User</text>
</g>
<!-- ActiveRecord::Base -->
<g id="node7" class="node"><title>ActiveRecord::Base</title>
<ellipse fill="none" stroke="black" cx="313" cy="-183" rx="81.3646" ry="18"/>
<text text-anchor="middle" x="313" y="-179.3" font-family="Times,serif" font-size="14.00">ActiveRecord::Base</text>
</g>
<!-- ActiveRecord::Base&#45;&gt;CreditCard -->
<g id="edge2" class="edge"><title>ActiveRecord::Base&#45;&gt;CreditCard</title>
<path fill="none" stroke="black" d="M286.898,-165.731C259.667,-148.758 217.338,-122.375 190.94,-105.922"/>
</g>
<!-- ActiveRecord::Base&#45;&gt;Note -->
<g id="edge3" class="edge"><title>ActiveRecord::Base&#45;&gt;Note</title>
<path fill="none" stroke="black" d="M300.92,-165.17C278.149,-133.447 229.192,-65.2421 207.154,-34.5392"/>
</g>
<!-- ActiveRecord::Base&#45;&gt;Account -->
<g id="edge5" class="edge"><title>ActiveRecord::Base&#45;&gt;Account</title>
<path fill="none" stroke="black" d="M313,-164.884C313,-148.614 313,-124.284 313,-108.04"/>
</g>
<!-- ActiveRecord::Base&#45;&gt;User -->
<g id="edge6" class="edge"><title>ActiveRecord::Base&#45;&gt;User</title>
<path fill="none" stroke="black" d="M328.774,-165.309C344.873,-148.274 369.622,-122.087 385.033,-105.779"/>
</g>
<!-- ActiveRecord::Base&#45;&gt;Payment -->
<g id="edge7" class="edge"><title>ActiveRecord::Base&#45;&gt;Payment</title>
<path fill="none" stroke="black" d="M357.393,-167.816C385.073,-156.407 418.471,-137.357 435,-108 442.85,-94.0579 441.052,-86.8111 435,-72 428.71,-56.6069 415.555,-43.2693 404.051,-33.8243"/>
</g>
</g>
</svg>
