<?xml version="1.0" encoding="UTF-8" standalone="no"?>
<!DOCTYPE svg PUBLIC "-//W3C//DTD SVG 1.1//EN"
 "http://www.w3.org/Graphics/SVG/1.1/DTD/svg11.dtd">
<!-- Generated by graphviz version 2.36.0 (20140111.2315)
 -->
<!-- Title: models_diagram Pages: 1 -->
<svg width="673pt" height="598pt"
 viewBox="0.00 0.00 673.02 598.00" xmlns="http://www.w3.org/2000/svg" xmlns:xlink="http://www.w3.org/1999/xlink">
<g id="graph0" class="graph" transform="scale(1 1) rotate(0) translate(4 594)">
<title>models_diagram</title>
<polygon fill="white" stroke="none" points="-4,4 -4,-594 669.019,-594 669.019,4 -4,4"/>
<!-- _diagram_info -->
<g id="node1" class="node"><title>_diagram_info</title>
<text text-anchor="start" x="13" y="-575.6" font-family="Times,serif" font-size="13.00">Models diagram</text>
<text text-anchor="start" x="13" y="-561.6" font-family="Times,serif" font-size="13.00">Date: Aug 20 2014 &#45; 11:38</text>
<text text-anchor="start" x="13" y="-547.6" font-family="Times,serif" font-size="13.00">Migration version: 20140604204641</text>
<text text-anchor="start" x="13" y="-533.6" font-family="Times,serif" font-size="13.00">Generated by RailRoady 1.1.2</text>
<text text-anchor="start" x="13" y="-519.6" font-family="Times,serif" font-size="13.00">http://railroady.prestonlee.com</text>
</g>
<!-- CreditCard -->
<g id="node2" class="node"><title>CreditCard</title>
<path fill="none" stroke="black" d="M12,-234.5C12,-234.5 184,-234.5 184,-234.5 190,-234.5 196,-240.5 196,-246.5 196,-246.5 196,-403.5 196,-403.5 196,-409.5 190,-415.5 184,-415.5 184,-415.5 12,-415.5 12,-415.5 6,-415.5 0,-409.5 0,-403.5 0,-403.5 0,-246.5 0,-246.5 0,-240.5 6,-234.5 12,-234.5"/>
<text text-anchor="middle" x="98" y="-400.3" font-family="Times,serif" font-size="14.00">CreditCard</text>
<polyline fill="none" stroke="black" points="0,-392.5 196,-392.5 "/>
<text text-anchor="start" x="8" y="-377.3" font-family="Times,serif" font-size="14.00">id :integer</text>
<text text-anchor="start" x="8" y="-362.3" font-family="Times,serif" font-size="14.00">name :text</text>
<text text-anchor="start" x="8" y="-347.3" font-family="Times,serif" font-size="14.00">credit_limit :decimal</text>
<text text-anchor="start" x="8" y="-332.3" font-family="Times,serif" font-size="14.00">interest_rate :decimal</text>
<text text-anchor="start" x="8" y="-317.3" font-family="Times,serif" font-size="14.00">balance_transfer_fee :decimal</text>
<text text-anchor="start" x="8" y="-302.3" font-family="Times,serif" font-size="14.00">no_interest_months :integer</text>
<text text-anchor="start" x="8" y="-287.3" font-family="Times,serif" font-size="14.00">foreign_transaction_fee :decimal</text>
<text text-anchor="start" x="8" y="-272.3" font-family="Times,serif" font-size="14.00">homepage :text</text>
<text text-anchor="start" x="8" y="-257.3" font-family="Times,serif" font-size="14.00">created_at :datetime</text>
<text text-anchor="start" x="8" y="-242.3" font-family="Times,serif" font-size="14.00">updated_at :datetime</text>
</g>
<!-- Note -->
<g id="node3" class="node"><title>Note</title>
<path fill="none" stroke="black" d="M75.5,-1C75.5,-1 182.5,-1 182.5,-1 188.5,-1 194.5,-7 194.5,-13 194.5,-13 194.5,-125 194.5,-125 194.5,-131 188.5,-137 182.5,-137 182.5,-137 75.5,-137 75.5,-137 69.5,-137 63.5,-131 63.5,-125 63.5,-125 63.5,-13 63.5,-13 63.5,-7 69.5,-1 75.5,-1"/>
<text text-anchor="middle" x="129" y="-121.8" font-family="Times,serif" font-size="14.00">Note</text>
<polyline fill="none" stroke="black" points="63.5,-114 194.5,-114 "/>
<text text-anchor="start" x="71.5" y="-98.8" font-family="Times,serif" font-size="14.00">id :integer</text>
<text text-anchor="start" x="71.5" y="-83.8" font-family="Times,serif" font-size="14.00">title :text</text>
<text text-anchor="start" x="71.5" y="-68.8" font-family="Times,serif" font-size="14.00">detail :text</text>
<text text-anchor="start" x="71.5" y="-53.8" font-family="Times,serif" font-size="14.00">created_at :datetime</text>
<text text-anchor="start" x="71.5" y="-38.8" font-family="Times,serif" font-size="14.00">updated_at :datetime</text>
<text text-anchor="start" x="71.5" y="-23.8" font-family="Times,serif" font-size="14.00">noteable_id :integer</text>
<text text-anchor="start" x="71.5" y="-8.8" font-family="Times,serif" font-size="14.00">noteable_type :string</text>
</g>
<!-- CreditCard&#45;&gt;Note -->
<g id="edge1" class="edge"><title>CreditCard&#45;&gt;Note</title>
<path fill="none" stroke="#9a95e3" d="M109.945,-226.129C113.134,-200 116.535,-172.132 119.568,-147.28"/>
<ellipse fill="none" stroke="#9a95e3" cx="109.414" cy="-230.479" rx="4.00001" ry="4.00001"/>
<polygon fill="#9a95e3" stroke="#9a95e3" points="119.588,-147.119 125.266,-137.738 120.194,-142.156 120.799,-137.192 120.799,-137.192 120.799,-137.192 120.194,-142.156 116.332,-136.647 119.588,-147.119 119.588,-147.119"/>
</g>
<!-- Account -->
<g id="node4" class="node"><title>Account</title>
<path fill="none" stroke="black" d="M264.5,-272C264.5,-272 371.5,-272 371.5,-272 377.5,-272 383.5,-278 383.5,-284 383.5,-284 383.5,-366 383.5,-366 383.5,-372 377.5,-378 371.5,-378 371.5,-378 264.5,-378 264.5,-378 258.5,-378 252.5,-372 252.5,-366 252.5,-366 252.5,-284 252.5,-284 252.5,-278 258.5,-272 264.5,-272"/>
<text text-anchor="middle" x="318" y="-362.8" font-family="Times,serif" font-size="14.00">Account</text>
<polyline fill="none" stroke="black" points="252.5,-355 383.5,-355 "/>
<text text-anchor="start" x="260.5" y="-339.8" font-family="Times,serif" font-size="14.00">id :integer</text>
<text text-anchor="start" x="260.5" y="-324.8" font-family="Times,serif" font-size="14.00">name :string</text>
<text text-anchor="start" x="260.5" y="-309.8" font-family="Times,serif" font-size="14.00">description :string</text>
<text text-anchor="start" x="260.5" y="-294.8" font-family="Times,serif" font-size="14.00">created_at :datetime</text>
<text text-anchor="start" x="260.5" y="-279.8" font-family="Times,serif" font-size="14.00">updated_at :datetime</text>
</g>
<!-- Payment -->
<g id="node6" class="node"><title>Payment</title>
<path fill="none" stroke="black" d="M412,-8.5C412,-8.5 536,-8.5 536,-8.5 542,-8.5 548,-14.5 548,-20.5 548,-20.5 548,-117.5 548,-117.5 548,-123.5 542,-129.5 536,-129.5 536,-129.5 412,-129.5 412,-129.5 406,-129.5 400,-123.5 400,-117.5 400,-117.5 400,-20.5 400,-20.5 400,-14.5 406,-8.5 412,-8.5"/>
<text text-anchor="middle" x="474" y="-114.3" font-family="Times,serif" font-size="14.00">Payment</text>
<polyline fill="none" stroke="black" points="400,-106.5 548,-106.5 "/>
<text text-anchor="start" x="408" y="-91.3" font-family="Times,serif" font-size="14.00">id :integer</text>
<text text-anchor="start" x="408" y="-76.3" font-family="Times,serif" font-size="14.00">account_id :integer</text>
<text text-anchor="start" x="408" y="-61.3" font-family="Times,serif" font-size="14.00">payment_date :datetime</text>
<text text-anchor="start" x="408" y="-46.3" font-family="Times,serif" font-size="14.00">is_recurring :boolean</text>
<text text-anchor="start" x="408" y="-31.3" font-family="Times,serif" font-size="14.00">created_at :datetime</text>
<text text-anchor="start" x="408" y="-16.3" font-family="Times,serif" font-size="14.00">updated_at :datetime</text>
</g>
<!-- Account&#45;&gt;Payment -->
<g id="edge4" class="edge"><title>Account&#45;&gt;Payment</title>
<path fill="none" stroke="#8a76fa" d="M344.393,-264.537C357.723,-236.38 374.893,-202.71 393,-174 400.638,-161.89 409.38,-149.487 418.231,-137.658"/>
<ellipse fill="none" stroke="#8a76fa" cx="342.614" cy="-268.325" rx="4.00002" ry="4.00002"/>
<polygon fill="#8a76fa" stroke="#8a76fa" points="418.321,-137.54 427.949,-132.291 421.342,-133.556 424.364,-129.572 424.364,-129.572 424.364,-129.572 421.342,-133.556 420.778,-126.853 418.321,-137.54 418.321,-137.54"/>
</g>
<!-- User -->
<g id="node5" class="node"><title>User</title>
<path fill="none" stroke="black" d="M414,-174.5C414,-174.5 590,-174.5 590,-174.5 596,-174.5 602,-180.5 602,-186.5 602,-186.5 602,-463.5 602,-463.5 602,-469.5 596,-475.5 590,-475.5 590,-475.5 414,-475.5 414,-475.5 408,-475.5 402,-469.5 402,-463.5 402,-463.5 402,-186.5 402,-186.5 402,-180.5 408,-174.5 414,-174.5"/>
<text text-anchor="middle" x="502" y="-460.3" font-family="Times,serif" font-size="14.00">User</text>
<polyline fill="none" stroke="black" points="402,-452.5 602,-452.5 "/>
<text text-anchor="start" x="410" y="-437.3" font-family="Times,serif" font-size="14.00">id :integer</text>
<text text-anchor="start" x="410" y="-422.3" font-family="Times,serif" font-size="14.00">email :string</text>
<text text-anchor="start" x="410" y="-407.3" font-family="Times,serif" font-size="14.00">encrypted_password :string</text>
<text text-anchor="start" x="410" y="-392.3" font-family="Times,serif" font-size="14.00">reset_password_token :string</text>
<text text-anchor="start" x="410" y="-377.3" font-family="Times,serif" font-size="14.00">reset_password_sent_at :datetime</text>
<text text-anchor="start" x="410" y="-362.3" font-family="Times,serif" font-size="14.00">remember_created_at :datetime</text>
<text text-anchor="start" x="410" y="-347.3" font-family="Times,serif" font-size="14.00">sign_in_count :integer</text>
<text text-anchor="start" x="410" y="-332.3" font-family="Times,serif" font-size="14.00">current_sign_in_at :datetime</text>
<text text-anchor="start" x="410" y="-317.3" font-family="Times,serif" font-size="14.00">last_sign_in_at :datetime</text>
<text text-anchor="start" x="410" y="-302.3" font-family="Times,serif" font-size="14.00">current_sign_in_ip :string</text>
<text text-anchor="start" x="410" y="-287.3" font-family="Times,serif" font-size="14.00">last_sign_in_ip :string</text>
<text text-anchor="start" x="410" y="-272.3" font-family="Times,serif" font-size="14.00">created_at :datetime</text>
<text text-anchor="start" x="410" y="-257.3" font-family="Times,serif" font-size="14.00">updated_at :datetime</text>
<text text-anchor="start" x="410" y="-242.3" font-family="Times,serif" font-size="14.00">name :string</text>
<text text-anchor="start" x="410" y="-227.3" font-family="Times,serif" font-size="14.00">confirmation_token :string</text>
<text text-anchor="start" x="410" y="-212.3" font-family="Times,serif" font-size="14.00">confirmed_at :datetime</text>
<text text-anchor="start" x="410" y="-197.3" font-family="Times,serif" font-size="14.00">confirmation_sent_at :datetime</text>
<text text-anchor="start" x="410" y="-182.3" font-family="Times,serif" font-size="14.00">unconfirmed_email :string</text>
</g>
<!-- ActiveRecord::Base -->
<g id="node7" class="node"><title>ActiveRecord::Base</title>
<ellipse fill="none" stroke="black" cx="318" cy="-551" rx="81.3646" ry="18"/>
<text text-anchor="middle" x="318" y="-547.3" font-family="Times,serif" font-size="14.00">ActiveRecord::Base</text>
</g>
<!-- ActiveRecord::Base&#45;&gt;CreditCard -->
<g id="edge2" class="edge"><title>ActiveRecord::Base&#45;&gt;CreditCard</title>
<path fill="none" stroke="black" d="M289.509,-534.041C266.57,-520.391 234.265,-499.298 210,-476 191.245,-457.993 173.275,-436.591 157.43,-415.676"/>
</g>
<!-- ActiveRecord::Base&#45;&gt;Note -->
<g id="edge3" class="edge"><title>ActiveRecord::Base&#45;&gt;Note</title>
<path fill="none" stroke="black" d="M294.572,-533.73C277.278,-520.347 254.781,-499.763 243,-476 182.885,-354.747 253.772,-299.852 204,-174 199.006,-161.373 192.134,-148.858 184.562,-137.119"/>
</g>
<!-- ActiveRecord::Base&#45;&gt;Account -->
<g id="edge5" class="edge"><title>ActiveRecord::Base&#45;&gt;Account</title>
<path fill="none" stroke="black" d="M318,-532.795C318,-500.115 318,-427.882 318,-378.069"/>
</g>
<!-- ActiveRecord::Base&#45;&gt;User -->
<g id="edge6" class="edge"><title>ActiveRecord::Base&#45;&gt;User</title>
<path fill="none" stroke="black" d="M336.119,-533.374C351.6,-518.826 374.136,-496.822 392,-476 395.259,-472.201 398.527,-468.312 401.79,-464.358"/>
</g>
<!-- ActiveRecord::Base&#45;&gt;Payment -->
<g id="edge7" class="edge"><title>ActiveRecord::Base&#45;&gt;Payment</title>
<path fill="none" stroke="black" d="M388.811,-542.059C466.548,-531.711 583.96,-510.718 611,-476 693.475,-370.106 670.677,-294.226 611,-174 597.391,-146.584 572.717,-124.449 548.021,-107.762"/>
</g>
</g>
</svg>
